<svg width="24.000000000000004" height="24.000000000000004" xmlns="http://www.w3.org/2000/svg">

 <g>
  <title>background</title>
  <rect fill="none" id="canvas_background" height="402" width="582" y="-1" x="-1"/>
 </g>
 <g>
  <title>Layer 1</title>
  <path fill="#929292" id="svg_1" d="m12,6c1.11,0 2,-0.9 2,-2c0,-0.38 -0.1,-0.73 -0.29,-1.03l-1.71,-2.97l-1.71,2.97c-0.19,0.3 -0.29,0.65 -0.29,1.03a2,2 0 0 0 2,2m4.6,10l-1.07,-1.08l-1.08,1.08c-1.3,1.29 -3.58,1.3 -4.89,0l-1.06,-1.08l-1.1,1.08c-0.65,0.64 -1.52,1 -2.44,1c-0.73,0 -1.4,-0.23 -1.96,-0.61l0,4.61a1,1 0 0 0 1,1l16,0a1,1 0 0 0 1,-1l0,-4.61c-0.56,0.38 -1.23,0.61 -1.96,0.61c-0.92,0 -1.79,-0.36 -2.44,-1m1.4,-7l-5,0l0,-2l-2,0l0,2l-5,0a3,3 0 0 0 -3,3l0,1.54c0,1.08 0.88,1.96 1.96,1.96c0.54,0 1.04,-0.2 1.38,-0.57l2.16,-2.13l2.11,2.13c0.74,0.74 2.03,0.74 2.77,0l2.12,-2.13l2.15,2.13c0.35,0.37 0.85,0.57 1.38,0.57c1.08,0 1.97,-0.88 1.97,-1.96l0,-1.54a3,3 0 0 0 -3,-3z"/>
 </g>
</svg>