<svg width="485.227" height="485.227" xmlns="http://www.w3.org/2000/svg">

 <g>
  <title>background</title>
  <rect fill="none" id="canvas_background" height="402" width="582" y="-1" x="-1"/>
 </g>
 <g>
  <title>Layer 1</title>
  <g id="svg_1">
   <path fill="#8d8b8d" id="svg_2" d="m438.3,443.723l-32.161,32.165c-5.745,5.713 -22.561,9.325 -23.069,9.325c-101.816,0.858 -199.839,-39.124 -271.88,-111.175c-72.247,-72.232 -112.272,-170.642 -111.159,-272.753c0,-0.061 3.687,-16.407 9.418,-22.094l32.161,-32.193c11.803,-11.784 34.399,-17.116 50.227,-11.845l6.781,2.28c15.831,5.273 32.371,22.745 36.753,38.825l16.202,59.44c4.396,16.108 -1.515,39.031 -13.299,50.82l-21.501,21.499c21.085,78.154 82.376,139.424 160.484,160.543l21.501,-21.497c11.789,-11.789 34.77,-17.684 50.876,-13.296l59.439,16.228c16.051,4.354 33.524,20.871 38.826,36.72l2.254,6.781c5.266,15.84 -0.064,38.442 -11.853,50.227z"/>
   <path stroke="null" transform="rotate(-138.20513916015625 337.15795898437506,138.68948364257812) " id="svg_18" d="m248.163052,138.358584l88.994902,-137.539746l88.994902,137.539746l-44.497454,0l0,138.201561l-88.994896,0l0,-138.201561l-44.497454,0z" stroke-opacity="null" stroke-width="null" fill="#0000ff"/>
  </g>
  <g id="svg_3"/>
  <g id="svg_4"/>
  <g id="svg_5"/>
  <g id="svg_6"/>
  <g id="svg_7"/>
  <g id="svg_8"/>
  <g id="svg_9"/>
  <g id="svg_10"/>
  <g id="svg_11"/>
  <g id="svg_12"/>
  <g id="svg_13"/>
  <g id="svg_14"/>
  <g id="svg_15"/>
  <g id="svg_16"/>
  <g id="svg_17"/>
 </g>
</svg>