<?xml version="1.0" standalone="no"?>
<!DOCTYPE svg PUBLIC "-//W3C//DTD SVG 20010904//EN"
 "http://www.w3.org/TR/2001/REC-SVG-20010904/DTD/svg10.dtd">
<svg version="1.0" xmlns="http://www.w3.org/2000/svg"
 width="1834.000000pt" height="730.000000pt" viewBox="0 0 1834.000000 730.000000"
 preserveAspectRatio="xMidYMid meet">

<g transform="translate(0.000000,730.000000) scale(0.100000,-0.100000)"
fill="#000000" stroke="none">
<path d="M12783 5585 c-68 -29 -68 -29 -70 -430 l-3 -360 -168 -5 c-185 -5
-194 -8 -219 -67 -18 -44 -18 -262 1 -306 28 -67 41 -71 222 -77 l163 -5 4
-750 c5 -808 5 -818 59 -966 67 -183 169 -275 358 -326 96 -25 343 -22 470 5
215 47 436 138 470 195 11 18 20 42 20 54 0 30 -104 300 -128 332 -37 49 -58
49 -173 -8 -119 -58 -193 -80 -300 -88 -88 -7 -140 7 -182 45 -56 53 -57 61
-57 819 l0 693 344 0 c337 0 344 0 371 22 15 12 34 36 41 54 19 46 19 263 0
309 -27 64 -36 65 -416 65 l-340 0 0 356 c0 396 -2 408 -65 438 -45 22 -353
22 -402 1z"/>
<path d="M7610 4837 c-109 -10 -252 -48 -362 -96 -249 -110 -501 -356 -631
-616 -147 -295 -165 -683 -47 -1007 122 -335 404 -630 725 -759 296 -118 645
-114 937 11 244 105 490 337 627 590 50 94 105 258 126 374 19 114 20 346 0
459 -69 396 -336 750 -704 933 -195 96 -421 134 -671 111z m335 -523 c221 -59
427 -262 498 -489 44 -139 47 -339 8 -487 -101 -385 -461 -617 -845 -544 -378
73 -627 439 -585 861 20 198 90 347 226 482 99 97 207 155 350 187 84 19 260
14 348 -10z"/>
<path d="M9978 4838 c-114 -10 -202 -34 -303 -83 -104 -51 -177 -111 -240
-200 -91 -126 -125 -234 -125 -388 1 -198 54 -333 184 -463 105 -105 229 -186
446 -291 333 -161 456 -233 503 -295 110 -143 49 -318 -127 -370 -60 -18 -237
-15 -336 6 -117 24 -184 48 -340 122 -75 35 -145 64 -156 64 -12 0 -33 -9 -46
-20 -29 -22 -158 -280 -158 -314 0 -32 25 -62 88 -105 305 -207 758 -283 1099
-185 254 73 447 244 524 464 18 51 24 93 27 195 4 150 -10 229 -60 334 -74
156 -292 314 -638 461 -398 169 -505 252 -505 395 0 50 5 69 28 103 36 55 112
98 200 113 129 21 356 -17 554 -95 156 -61 172 -55 253 105 48 95 60 127 60
165 0 42 -4 51 -38 83 -72 69 -240 141 -409 176 -126 26 -342 36 -485 23z"/>
<path d="M15316 4833 c-310 -36 -574 -185 -770 -437 -124 -159 -205 -328 -248
-521 -29 -130 -36 -403 -14 -549 62 -413 321 -772 679 -941 226 -107 522 -139
827 -88 209 34 398 111 548 222 92 68 125 112 118 153 -3 14 -48 92 -100 172
-124 190 -131 193 -256 111 -124 -81 -258 -139 -380 -166 -40 -9 -118 -14
-205 -13 -129 1 -147 3 -227 31 -122 42 -189 85 -288 183 -64 64 -96 105 -127
166 -47 90 -73 176 -73 241 l0 43 870 0 870 0 31 28 c29 26 31 33 42 140 13
132 0 300 -33 425 -102 387 -415 691 -806 782 -126 29 -302 36 -458 18z m338
-463 c101 -26 165 -61 245 -135 108 -101 167 -211 186 -352 l7 -53 -636 0
c-350 0 -636 4 -636 8 0 5 9 43 20 86 59 231 235 401 465 450 104 22 256 20
349 -4z"/>
<path d="M1556 4768 c-48 -36 -56 -71 -56 -243 0 -177 9 -213 62 -245 31 -18
50 -20 261 -20 l227 0 -2 -1117 -3 -1118 -24 -60 c-18 -44 -42 -78 -90 -126
-80 -80 -145 -108 -273 -118 -143 -10 -158 -36 -158 -272 0 -248 15 -266 215
-256 138 7 219 27 344 87 198 95 342 241 435 442 54 116 74 188 86 314 5 57
10 634 10 1372 0 1382 3 1315 -55 1360 -28 22 -31 22 -489 22 -455 -1 -461 -1
-490 -22z"/>
<path d="M3229 4773 c-63 -39 -59 42 -59 -1217 l0 -1146 34 -38 34 -37 168 -3
c200 -4 224 0 264 39 l30 31 0 1154 c0 1274 4 1186 -61 1220 -43 22 -374 20
-410 -3z"/>
<path d="M4035 4765 c-48 -48 -109 99 588 -1415 526 -1144 479 -1048 524
-1066 43 -19 111 -14 146 9 16 10 58 90 127 239 129 279 413 895 665 1443 106
231 212 461 235 510 104 223 110 248 64 284 -25 19 -40 21 -205 21 -202 0
-248 -10 -275 -61 -25 -49 -666 -1452 -676 -1482 -6 -15 -15 -26 -20 -25 -5 2
-38 71 -74 153 -36 83 -123 283 -194 445 -70 162 -183 420 -249 573 -161 370
-159 366 -192 382 -22 12 -73 15 -234 15 -205 0 -206 0 -230 -25z"/>
<path d="M11492 4776 c-13 -7 -32 -26 -43 -42 -18 -28 -19 -59 -19 -1172 0
-1060 1 -1146 17 -1173 32 -54 64 -61 263 -57 l179 3 35 34 36 35 0 1153 c0
1273 4 1185 -61 1219 -38 19 -372 20 -407 0z"/>
</g>
</svg>
