<svg width="58" height="58" xmlns="http://www.w3.org/2000/svg">

 <g>
  <title>background</title>
  <rect fill="none" id="canvas_background" height="402" width="582" y="-1" x="-1"/>
 </g>
 <g>
  <title>Layer 1</title>
  <polygon stroke="null" id="svg_1" fill="#3974eb" points="42.03348112106323,5 16.091515064239502,5 1.1249961853027344,5 1.1249961853027344,17.750006794929504 57,17.750006794929504 57,5 "/>
  <rect stroke="null" id="svg_13" fill="#EDEADA" height="38.000055" width="51.875113" y="17.875003" x="3.124942"/>
  <circle id="svg_14" fill="#7a7871" r="5" cy="29" cx="13"/>
  <circle id="svg_15" fill="#7a7871" r="5" cy="29" cx="29"/>
  <circle id="svg_16" fill="#7a7871" r="5" cy="29" cx="45"/>
  <circle id="svg_17" fill="#7a7871" r="5" cy="45" cx="13"/>
  <circle id="svg_18" fill="#7a7871" r="5" cy="45" cx="29"/>
  <circle stroke="null" id="svg_19" fill="#3974eb" r="5" cy="45" cx="45"/>
  <g id="svg_20"/>
  <g id="svg_21"/>
  <g id="svg_22"/>
  <g id="svg_23"/>
  <g id="svg_24"/>
  <g id="svg_25"/>
  <g id="svg_26"/>
  <g id="svg_27"/>
  <g id="svg_28"/>
  <g id="svg_29"/>
  <g id="svg_30"/>
  <g id="svg_31"/>
  <g id="svg_32"/>
  <g id="svg_33"/>
  <g id="svg_34"/>
  <line x2="3.125708" y2="17.931944" stroke-linecap="null" stroke-linejoin="null" id="svg_37" y1="55.305923" x1="1.750746" stroke-width="null" fill="none"/>
  <rect stroke="null" id="svg_42" fill="#000000" height="51.872186" width="1.935429" y="5.088515" x="1.194906"/>
  <rect stroke="null" id="svg_43" fill="#000000" height="2.053133" width="54.046407" y="54.907573" x="2.642433"/>
  <rect stroke="null" id="svg_44" fill="#000000" height="51.510305" width="2.056056" y="5.088513" x="54.874035"/>
  <rect stroke="null" id="svg_46" fill="#000000" height="2.053133" width="54.046407" y="5.088515" x="1.798042"/>
 </g>
</svg>