<?xml version="1.0" encoding="UTF-8"?>
<svg xmlns="http://www.w3.org/2000/svg" xmlns:xlink="http://www.w3.org/1999/xlink" width="16px" height="16px" viewBox="0 0 16 16" version="1.1">
	<path fill="#525552" d="M 10.667969 9.332031 L 11.667969 9.332031 L 11.667969 11.214844 L 13.292969 12.152344 L 12.792969 13.019531 L 10.667969 11.792969 L 10.667969 9.332031 M 11.332031 8 C 9.492188 8 8 9.492188 8 11.332031 C 8 13.175781 9.492188 14.667969 11.332031 14.667969 C 13.175781 14.667969 14.667969 13.175781 14.667969 11.332031 C 14.667969 9.492188 13.175781 8 11.332031 8 M 11.332031 6.667969 C 13.910156 6.667969 16 8.757812 16 11.332031 C 16 13.910156 13.910156 16 11.332031 16 C 9.472656 16 7.867188 14.90625 7.113281 13.332031 L 0.667969 13.332031 L 0.667969 11.332031 C 0.667969 9.558594 4.21875 8.667969 6 8.667969 C 6.398438 8.667969 6.894531 8.714844 7.414062 8.800781 C 8.238281 7.519531 9.6875 6.667969 11.332031 6.667969 M 6.667969 11.332031 C 6.667969 10.867188 6.734375 10.414062 6.859375 10 C 6.578125 9.953125 6.285156 9.933594 6 9.933594 C 4.019531 9.933594 1.933594 10.90625 1.933594 11.332031 L 1.933594 12.066406 L 6.726562 12.066406 C 6.6875 11.828125 6.667969 11.578125 6.667969 11.332031 M 6 2.667969 C 7.472656 2.667969 8.667969 3.859375 8.667969 5.332031 C 8.667969 6.804688 7.472656 8 6 8 C 4.527344 8 3.332031 6.804688 3.332031 5.332031 C 3.332031 3.859375 4.527344 2.667969 6 2.667969 M 6 3.933594 C 5.226562 3.933594 4.601562 4.558594 4.601562 5.332031 C 4.601562 6.105469 5.226562 6.734375 6 6.734375 C 6.773438 6.734375 7.398438 6.105469 7.398438 5.332031 C 7.398438 4.558594 6.773438 3.933594 6 3.933594 Z M 6 3.933594 "/>
</svg>
