<svg width="1450" height="677" xmlns="http://www.w3.org/2000/svg" preserveAspectRatio="xMidYMid meet">

 <g>
  <title>background</title>
  <rect fill="none" id="canvas_background" height="679" width="1452" y="-1" x="-1"/>
 </g>
 <g>
  <title>Layer 1</title>
  <g id="svg_1" fill="#7c529e" transform="translate(0,497) scale(0.10000000149011612,-0.10000000149011612) ">
   <path id="svg_2" d="m6635,3663c-491,-8 -1096,-32 -1580,-63c-560,-36 -1260,-136 -1575,-225c-340,-97 -597,-297 -738,-575c-117,-231 -164,-499 -163,-935c0,-437 48,-755 144,-967c173,-378 593,-649 1120,-723c134,-19 526,-55 594,-55l53,0l1,-77c1,-43 2,-223 3,-400c0,-177 4,-325 9,-329c4,-4 20,1 35,13c27,20 58,53 425,457c110,122 209,231 221,244l22,22l224,-10c1566,-70 2814,-60 4275,36c744,48 940,75 1270,174c329,98 545,234 719,452c79,98 167,265 199,378c79,273 100,936 42,1305c-29,182 -102,370 -204,525c-52,80 -192,221 -274,278c-237,162 -422,222 -917,296c-611,92 -897,114 -2055,156c-505,18 -1424,30 -1850,23zm-1967,-998c48,-10 116,-35 180,-66c263,-130 420,-374 439,-682c5,-85 4,-100 -12,-117c-10,-11 -26,-20 -36,-20c-33,0 -46,26 -53,112c-19,233 -97,401 -246,525c-112,94 -290,163 -419,163c-35,0 -65,6 -79,16c-24,17 -29,53 -10,72c17,17 143,15 236,-3zm1164,-31c45,-33 65,-74 143,-284c42,-113 89,-239 105,-280c16,-41 61,-163 101,-270c40,-107 75,-199 79,-203c5,-5 13,8 20,30c7,21 41,115 77,208c35,94 81,217 103,275c183,490 190,504 251,536c39,20 128,20 167,0c37,-19 90,-79 98,-112c13,-53 -6,-126 -91,-339c-100,-254 -194,-492 -270,-685c-30,-74 -83,-209 -118,-298c-76,-193 -109,-246 -164,-261c-113,-32 -195,4 -241,107c-12,26 -69,169 -128,317c-127,325 -182,463 -310,785c-81,204 -98,256 -102,313c-4,60 -1,72 22,107c54,82 184,110 258,54zm-1855,4c41,-30 104,-102 180,-208c75,-104 102,-162 103,-217c0,-46 -25,-77 -120,-154c-40,-32 -45,-40 -44,-76c4,-142 142,-330 333,-455c66,-43 150,-78 188,-78c29,0 69,30 102,75c66,93 143,109 247,54c82,-43 206,-133 281,-204c56,-54 63,-65 63,-99c0,-82 -122,-246 -220,-296c-95,-48 -158,-37 -369,69c-239,121 -395,234 -592,430c-209,210 -349,405 -452,636c-120,269 -115,332 34,448c41,32 90,67 109,77c49,27 118,26 157,-2zm3389,-10c108,-74 124,-209 36,-301c-40,-43 -79,-59 -141,-60c-62,0 -102,16 -143,60c-124,130 -34,332 148,333c42,0 61,-6 100,-32zm485,9c19,-12 44,-42 57,-67c20,-41 22,-57 22,-232c0,-172 5,-210 25,-178c12,19 104,60 167,75c81,19 198,19 271,0c149,-39 248,-126 326,-288c72,-148 85,-205 85,-372c0,-125 -3,-148 -26,-215c-15,-41 -44,-106 -65,-145c-45,-84 -159,-203 -223,-233c-175,-83 -394,-69 -508,33c-54,49 -62,53 -62,30c0,-8 -14,-30 -31,-49c-76,-87 -232,-69 -286,34l-23,44l2,736l3,736l26,40c34,52 79,73 150,74c42,0 65,-6 90,-23zm-3188,-173c172,-38 296,-135 367,-286c62,-132 77,-283 30,-308c-27,-14 -37,-13 -60,10c-14,14 -20,33 -20,68c0,26 -7,74 -15,107c-46,174 -176,285 -374,319c-84,14 -101,24 -101,62c0,47 49,56 173,28zm52,-215c30,-11 69,-32 85,-45c39,-33 77,-116 85,-186c7,-53 6,-57 -19,-74c-45,-29 -70,-9 -89,73c-22,90 -70,139 -147,149c-28,4 -58,13 -66,21c-17,18 -18,55 -2,71c18,18 91,14 153,-9zm4918,-14c95,-20 180,-69 263,-150c135,-133 205,-280 208,-435c1,-105 -15,-140 -74,-164c-35,-14 -93,-16 -420,-16c-209,0 -380,-2 -380,-5c0,-28 48,-120 76,-144c73,-65 108,-76 234,-76l115,0l120,63c126,65 163,74 214,47c78,-40 107,-125 71,-201c-68,-140 -387,-253 -630,-224c-163,20 -277,74 -380,180c-123,127 -181,279 -181,475c0,134 16,199 78,325c37,76 61,109 122,170c97,96 171,135 306,164c47,9 195,5 258,-9zm831,-6c46,-13 96,-59 96,-88c0,-12 3,-21 7,-21c3,0 29,22 58,49c42,40 62,51 109,61c141,29 239,-42 239,-174c0,-72 -20,-97 -106,-136c-197,-89 -250,-122 -278,-171c-11,-18 -15,-101 -19,-354c-5,-355 -6,-361 -62,-412c-33,-31 -97,-47 -153,-39c-58,9 -120,61 -135,114c-6,23 -10,231 -10,540c0,404 3,509 14,535c35,84 138,124 240,96zm-3139,-88c46,-21 79,-54 94,-94c14,-37 15,-948 1,-996c-38,-135 -252,-154 -325,-31c-19,34 -20,53 -23,480c-2,245 0,468 3,497c8,67 39,112 95,141c54,27 101,28 155,3z"/>
   <path id="svg_3" d="m8134,1920c-79,-18 -145,-89 -181,-194c-26,-74 -23,-214 6,-286c31,-80 85,-148 134,-171c56,-25 146,-25 196,0c128,66 194,269 143,438c-52,170 -159,247 -298,213z"/>
   <path id="svg_4" d="m9385,1936c-69,-30 -131,-106 -153,-188l-10,-38l264,0c145,0 264,4 264,8c0,5 -7,29 -16,55c-20,58 -86,134 -139,158c-48,22 -165,25 -210,5z"/>
  </g>
 </g>
</svg>