<?xml version="1.0" encoding="UTF-8"?>
<svg xmlns="http://www.w3.org/2000/svg" xmlns:xlink="http://www.w3.org/1999/xlink" width="16px" height="16px" viewBox="0 0 16 16" version="1.1">

<path fill = "#525552" d="M 13.332031 10 L 13.332031 12 L 15.332031 12 L 15.332031 13.332031 L 13.332031 13.332031 L 13.332031 15.332031 L 12 15.332031 L 12 13.332031 L 10 13.332031 L 10 12 L 12 12 L 12 10 L 13.332031 10 M 8 8.667969 C 7.265625 8.667969 6.667969 9.265625 6.667969 10 C 6.667969 10.734375 7.265625 11.332031 8 11.332031 C 8.734375 11.332031 9.332031 10.734375 9.332031 10 C 9.332031 9.265625 8.734375 8.667969 8 8.667969 M 8.898438 14 L 3.667969 14 C 3.054688 14 2.539062 13.585938 2.386719 13.027344 L 0.691406 6.847656 C 0.667969 6.785156 0.667969 6.726562 0.667969 6.667969 C 0.667969 6.300781 0.964844 6 1.332031 6 L 4.527344 6 L 7.445312 1.632812 C 7.574219 1.441406 7.785156 1.332031 8 1.332031 C 8.214844 1.332031 8.425781 1.441406 8.554688 1.625 L 11.472656 6 L 14.667969 6 C 15.035156 6 15.332031 6.300781 15.332031 6.667969 L 15.3125 6.847656 L 14.667969 9.207031 C 14.285156 9 13.859375 8.828125 13.414062 8.738281 L 13.800781 7.332031 L 2.207031 7.332031 L 3.667969 12.667969 L 8.667969 12.667969 C 8.667969 13.132812 8.753906 13.578125 8.898438 14 M 6.132812 6 L 9.867188 6 L 8 3.199219 Z M 6.132812 6 "/>

</svg>
