<?xml version="1.0" encoding="UTF-8"?>
<svg xmlns="http://www.w3.org/2000/svg" xmlns:xlink="http://www.w3.org/1999/xlink" width="16px" height="16px" viewBox="0 0 16 16" version="1.1">

<path fill = "#525552" d="M 12 6 C 12.738281 6 13.332031 6.59375 13.332031 7.332031 L 13.332031 9.332031 C 13.332031 10.074219 12.738281 10.667969 12 10.667969 L 10.511719 10.667969 L 9.6875 9.847656 C 9.1875 9.332031 8.511719 9.066406 7.800781 9.066406 C 7.085938 9.066406 6.421875 9.332031 5.914062 9.847656 L 5.09375 10.667969 L 4 10.667969 C 3.261719 10.667969 2.667969 10.074219 2.667969 9.332031 L 2.667969 7.332031 C 2.667969 6.59375 3.261719 6 4 6 L 12 6 M 12 4.667969 L 4 4.667969 C 2.527344 4.667969 1.332031 5.859375 1.332031 7.332031 L 0.667969 7.332031 L 0.667969 9.332031 L 1.332031 9.332031 C 1.332031 10.804688 2.527344 12 4 12 L 5.667969 12 C 5.691406 11.960938 5.726562 11.921875 6.859375 10.785156 C 7.121094 10.527344 7.460938 10.398438 7.800781 10.398438 C 8.148438 10.398438 8.488281 10.527344 8.746094 10.785156 L 9.941406 12 L 12 12 C 13.472656 12 14.667969 10.804688 14.667969 9.332031 L 15.332031 9.332031 L 15.332031 7.332031 L 14.667969 7.332031 C 14.667969 5.859375 13.472656 4.667969 12 4.667969 Z M 12 4.667969 "/>

</svg>
