<?xml version="1.0"?>
<svg width="24" height="24" xmlns="http://www.w3.org/2000/svg" xmlns:svg="http://www.w3.org/2000/svg">
 <g class="layer">
  <title>Layer 1</title>
  <path d="m6.862759,2.478155a2.388281,2.332368 0 0 1 -2.388281,2.332368a2.388281,2.332368 0 0 1 -2.388281,-2.332368a2.388281,2.332368 0 0 1 2.388281,-2.332368a2.388281,2.332368 0 0 1 2.388281,2.332368m-4.179491,3.498551c-1.325496,0 -2.388281,1.037904 -2.388281,2.332368l0,6.997103l2.388281,0l0,8.163286l4.310847,0a8.358983,8.163286 0 0 1 -2.519636,-5.830919a8.358983,8.163286 0 0 1 4.179491,-7.055412l0,-2.274058c0,-1.294464 -1.062785,-2.332368 -2.388281,-2.332368m5.970702,1.166184l0,9.32947l6.567772,0l3.224179,4.198262l1.910625,-1.399421l-3.940663,-5.131209l-5.373632,0l0,-6.997103m-3.582421,4.932957a5.970702,5.830919 0 0 0 -4.179491,5.562697a5.970702,5.830919 0 0 0 5.970702,5.830919a5.970702,5.830919 0 0 0 5.970702,-5.830919l-2.388281,0a3.582421,3.498551 0 0 1 -3.582421,3.498551a3.582421,3.498551 0 0 1 -3.582421,-3.498551a3.582421,3.498551 0 0 1 1.791211,-3.020416l0,-2.542281z" fill="#ffffff" id="svg_1"/>
 </g>
</svg>