<svg width="539.33301" height="236.26563" xmlns="http://www.w3.org/2000/svg">

 <g>
  <title>background</title>
  <rect fill="none" id="canvas_background" height="238.26563" width="541.33301" y="-1" x="-1"/>
 </g>
 <g>
  <title>Layer 1</title>
  <g id="svg_1">
   <path id="svg_2" d="m184.05799,80.7782c-7.06641,-7.0664 -16.84375,-10.26464 -26.82178,-8.71777c-13.17822,2.01758 -23.79151,12.63086 -25.8086,25.80957c-1.5288,9.97656 1.65235,19.75391 8.72168,26.82324c5.90381,5.90821 13.69825,9.09766 21.92139,9.09766c1.62012,0 3.25781,-0.12207 4.89844,-0.37598c13.17529,-2.01465 23.79199,-12.63086 25.8125,-25.8125c1.52832,-9.97656 -1.65332,-19.75488 -8.72363,-26.82422m-3.95655,24.87891c-1.16259,7.57812 -7.50293,13.91797 -15.07275,15.07715c-5.89649,0.89844 -11.65381,-0.95899 -15.80762,-5.11231c-4.15137,-4.15039 -6.01465,-9.91504 -5.11181,-15.81152c1.16064,-7.57031 7.49804,-13.90723 15.06982,-15.06934c5.91846,-0.88964 11.65332,0.96192 15.80762,5.11133c4.14941,4.15137 6.01465,9.91211 5.11474,15.80469" fill="#7CC242"/>
   <path id="svg_3" d="m116.92761,111.02918c-5.82666,6.30957 -14.11181,9.92773 -22.73681,9.92773c-16.99072,0 -30.81445,-13.69921 -30.81445,-30.53613c0,-16.84082 13.82373,-30.53906 30.81445,-30.53906c8.58398,0 16.84472,3.58984 22.66504,9.84863c2.42138,2.60645 6.47802,2.73438 9.06787,0.3291c2.59521,-2.41601 2.74072,-6.47558 0.32861,-9.06933c-8.24072,-8.8584 -19.92431,-13.93946 -32.06152,-13.93946c-24.06738,0 -43.64551,19.45606 -43.64551,43.37012c0,23.91309 19.57813,43.36621 43.64551,43.36621c12.19287,0 23.91406,-5.12109 32.16601,-14.05566c2.40235,-2.59961 2.23877,-6.65918 -0.36425,-9.06543c-2.6001,-2.39942 -6.66553,-2.24902 -9.06495,0.36328" fill="#7CC242"/>
   <path id="svg_4" d="m420.77381,71.68445c-3.54297,0 -6.41602,2.87305 -6.41602,6.41602l0,49.27148c0,3.54297 2.87305,6.41504 6.41602,6.41504s6.41504,-2.87207 6.41504,-6.41504l0,-49.27148c0,-3.54297 -2.87208,-6.41602 -6.41504,-6.41602" fill="#5E469C"/>
   <path id="svg_5" d="m416.21912,51.99402c-1.15625,1.21875 -1.85938,2.82227 -1.85938,4.55469s0.70313,3.33594 1.85938,4.55469c1.21973,1.15527 2.88672,1.86035 4.55566,1.86035c1.66699,0 3.33692,-0.70508 4.55469,-1.86035c1.15137,-1.21875 1.86133,-2.88867 1.86133,-4.55469c0,-1.66992 -0.70996,-3.33594 -1.86133,-4.55469c-2.44141,-2.375 -6.7373,-2.375 -9.11035,0" fill="#5E469C"/>
   <path id="svg_6" d="m486.72302,114.66297c-2.60156,-2.39941 -6.6582,-2.24902 -9.06445,0.36328c-3.47949,3.76856 -8.43262,5.93066 -13.58496,5.93066c-10.15039,0 -18.40918,-8.17285 -18.40918,-18.2207s8.25879,-18.2207 18.40918,-18.2207c5.20117,0 10.0127,2.08984 13.54004,5.88672c2.4209,2.59961 6.47168,2.74707 9.07031,0.32812c2.59375,-2.41504 2.74121,-6.47168 0.3291,-9.06836c-5.89843,-6.33984 -14.26171,-9.97754 -22.93945,-9.97754c-17.22656,0 -31.24023,13.93067 -31.24023,31.05176c0,17.12402 14.01367,31.05078 31.24023,31.05078c8.72168,0 17.10938,-3.66504 23.01465,-10.05859c2.40234,-2.59961 2.2373,-6.65918 -0.36524,-9.06543" fill="#5E469C"/>
   <path id="svg_7" d="m408.71521,78.09852c0,-3.54297 -2.87304,-6.41504 -6.41601,-6.41504l-23.09766,0c-0.11426,0 -0.20703,0.05957 -0.31934,0.06543c-2.00781,-0.0752 -4.03906,-0.00586 -6.08691,0.31152c-13.17773,2.01758 -23.79102,12.63086 -25.80859,25.80957c-1.52832,9.97656 1.65234,19.75391 8.72265,26.82324c1.67578,1.67774 3.53321,3.07227 5.48047,4.29981c-1.45996,2.34961 -2.26074,4.97754 -2.26074,7.61718c0,2.36622 0.66797,4.71875 1.84375,6.87891c-8.50488,4.44629 -14.16016,12.10742 -14.16016,20.83692c0,13.72363 13.92676,24.8916 31.04785,24.8916c17.12208,0 31.05469,-11.16797 31.05469,-24.8916c0,-13.72657 -13.93261,-24.89356 -31.05469,-24.89356c-3.3623,0 -5.90039,-1.21289 -5.90039,-2.82227c0,-1.60546 2.52149,-2.81152 5.86914,-2.81933l0.00098,0c1.62012,0 3.25684,-0.12207 4.89844,-0.37598c13.17871,-2.01758 23.79101,-12.63086 25.80859,-25.8125c1.28125,-8.36035 -0.78418,-16.56152 -5.63867,-23.16797c3.3457,-0.21777 6.0166,-2.93359 6.0166,-6.33593m-31.05469,74.16504c9.87891,0 18.22364,5.52539 18.22364,12.0625c0,6.53808 -8.34473,12.06054 -18.22364,12.06054c-9.87695,0 -18.21777,-5.52246 -18.21777,-12.06054c0,-6.53711 8.34082,-12.0625 18.21777,-12.0625m17.9961,-46.60352c-1.16211,7.57519 -7.49902,13.91211 -15.06836,15.07227c-5.90527,0.90039 -11.65625,-0.95704 -15.80859,-5.11036c-4.1504,-4.15039 -6.01465,-9.91504 -5.11133,-15.80957c1.16113,-7.57226 7.49804,-13.91211 15.06933,-15.07129c0.97754,-0.14746 1.9502,-0.22265 2.91016,-0.22265c4.85059,0 9.43262,1.87011 12.89648,5.33496c4.15137,4.14941 6.01465,9.91113 5.11231,15.80664" fill="#5E469C"/>
   <path id="svg_8" d="m331.87049,80.78211c-7.06641,-7.07031 -16.84961,-10.26855 -26.82227,-8.72168c-13.17871,2.01758 -23.79199,12.63086 -25.80859,25.80957c-1.5293,9.97656 1.65234,19.75391 8.72265,26.82324c5.90235,5.90821 13.69824,9.09766 21.9209,9.09766c1.62012,0 3.25684,-0.12207 4.89746,-0.37598c4.95117,-0.75879 9.53906,-2.73047 13.44531,-5.59375c0.24317,3.32129 2.94141,5.96582 6.32618,5.96582c3.54296,0 6.41504,-2.87207 6.41504,-6.41504l0,-23.66601c0,-0.05078 -0.02833,-0.09278 -0.0293,-0.1416c0.23144,-8.53418 -2.95703,-16.6709 -9.06738,-22.78223m-3.95899,24.87793c-1.16406,7.57519 -7.50098,13.91504 -15.07129,15.07227c-5.89844,0.90039 -11.65234,-0.95704 -15.80762,-5.11036c-4.15136,-4.15039 -6.01464,-9.91504 -5.11132,-15.80957c1.16113,-7.57226 7.49804,-13.90918 15.06933,-15.07129c5.91211,-0.88964 11.65723,0.96192 15.80664,5.11231c4.15039,4.14941 6.01465,9.91113 5.11426,15.80664" fill="#5E469C"/>
   <path id="svg_9" d="m268.06287,47.17566c-3.00098,-0.60156 -6.00488,0.99903 -7.18067,3.82227l-24.87011,59.69336l-24.87696,-59.69336c-1.17187,-2.82324 -4.16699,-4.42969 -7.17968,-3.82227c-2.99707,0.59864 -5.15625,3.2334 -5.15625,6.29004l0,73.90625c0,3.54297 2.87207,6.41504 6.41504,6.41504s6.41601,-2.87207 6.41601,-6.41504l0,-41.83203l18.45996,44.30078c0.9961,2.38965 3.3291,3.94629 5.92188,3.94629c2.58984,0 4.92285,-1.55664 5.91992,-3.94629l18.45605,-44.29785l0,41.8291c0,3.54297 2.87305,6.41504 6.41602,6.41504c3.54394,0 6.41602,-2.87207 6.41602,-6.41504l0,-73.90625c0,-3.05664 -2.16016,-5.6914 -5.15723,-6.29004" fill="#5E469C"/>
  </g>
 </g>
</svg>