<svg width="485.227" height="485.227" xmlns="http://www.w3.org/2000/svg">
 <g>
  <title>background</title>
  <rect x="-1" y="-1" width="487.227" height="487.227" id="canvas_background" fill="none"/>
 </g>

 <g>
  <title>Layer 1</title>
  <g id="svg_1">
   <path stroke="null" d="m423.951065,506.690427l-27.55058,26.951419c-4.921426,4.786982 -19.326785,7.813522 -19.761957,7.813522c-87.220221,0.718922 -171.191195,-32.782446 -232.904799,-93.154782c-61.890072,-60.524009 -96.177311,-142.982855 -95.223859,-228.542821c0,-0.051109 3.158446,-13.747609 8.067887,-18.512805l27.55058,-26.974879c10.11098,-9.873953 29.467748,-14.341695 43.026732,-9.925062l5.808918,1.910442c13.561556,4.418306 27.73047,19.058287 31.484289,32.531902l13.879376,49.805445c3.765815,13.497075 -1.297824,32.70452 -11.392537,42.582652l-18.418733,18.014252c18.062376,65.486114 70.567038,116.824938 137.47791,134.520791l18.418733,-18.012578c10.098995,-9.878132 29.785568,-14.817619 43.582698,-11.140873l50.918161,13.597629c13.750009,3.648265 28.718176,17.488041 33.260114,30.768103l1.930884,5.681879c4.511094,13.272506 -0.054824,32.210978 -10.153819,42.085763z" id="svg_2" transform="rotate(136.63099670410156 242.16781616210943,352.05361938476557) " fill="#8d8b8d"/>
   <path stroke="null" fill="#ff0000" stroke-width="null" stroke-opacity="null" d="m219.468292,121.251405l-46.671706,-74.21662l39.409111,-12.743958l-106.733816,-61.920761l-44.036373,110.680842c18.215689,-6.801874 27.275213,-8.882686 46.415331,-17.349971l69.491005,118.403227c61.86461,1.410176 125.211185,8.000033 187.075795,9.410208l-0.656054,-65.435347l-144.293293,-6.82762z" id="svg_20" transform="rotate(-29.033588409423828 212.92658996582028,82.94222259521483) "/>
  </g>
  <g id="svg_3"/>
  <g id="svg_4"/>
  <g id="svg_5"/>
  <g id="svg_6"/>
  <g id="svg_7"/>
  <g id="svg_8"/>
  <g id="svg_9"/>
  <g id="svg_10"/>
  <g id="svg_11"/>
  <g id="svg_12"/>
  <g id="svg_13"/>
  <g id="svg_14"/>
  <g id="svg_15"/>
  <g id="svg_16"/>
  <g id="svg_17"/>
 </g>
</svg>